<?xml version="1.0" encoding="utf-8"?>
<!-- Generator: Adobe Illustrator 16.0.0, SVG Export Plug-In . SVG Version: 6.00 Build 0)  -->
<!DOCTYPE svg PUBLIC "-//W3C//DTD SVG 1.1//EN" "http://www.w3.org/Graphics/SVG/1.1/DTD/svg11.dtd">
<svg version="1.1" id="Layer_1" xmlns="http://www.w3.org/2000/svg" xmlns:xlink="http://www.w3.org/1999/xlink" x="0px" y="0px"
	 width="354.25px" height="336.25px" viewBox="0 0 354.25 336.25" enable-background="new 0 0 354.25 336.25" xml:space="preserve">
<g>
	<g>
		<path fill="#2F2F2F" d="M318.293,1c0.461,1.058,1.473,2.221,1.291,3.155c-1.031,5.317,0.438,10.182,2.17,15.063
			c2.65,7.479,5.713,14.858,7.715,22.512c1.863,7.136-4.067,19.219-10.426,22.926c-2.695,1.569-5.053,1.046-7.043-2.225
			c5.838-5.271,12.73-10.122,11.477-19.417c-1.062-7.889-5.573-13.835-11.459-19.743c-3.692,10.57-7.238,20.636-10.725,30.723
			c-3.398,9.84-6.629,19.738-10.145,29.535c-1.969,5.494-6.375,8.916-11.447,11.275c-11.717,5.451-23.77,5.724-35.811,1.209
			c-5.005-1.876-9.123-5.242-9.945-10.888c-0.405-2.788,0.492-5.765,0.837-9.013c-9.966-2.251-20.321-4.591-31.438-7.103
			c-6.832,21.043-13.674,42.12-20.687,63.723c39.141,2.155,76.089,9.984,108.653,32.146c18.875-19.809,46.079-12.836,56.543,2.904
			c9.888,14.869,8.449,40.115-15.481,51.761c3.639,16.283,1.021,31.87-6.402,46.74c-6.227,12.469-16.166,21.854-26.598,30.584
			c-19.917,16.667-43.372,26.071-68.388,32.067c-22.504,5.396-45.348,7.01-68.356,5.818c-18.629-0.965-36.858-4.527-54.751-9.958
			c-19.643-5.963-37.715-14.877-53.517-27.983c-5.73-4.752-10.537-10.606-15.883-15.836c-9.989-9.773-14.98-22.024-17.609-35.406
			c-1.518-7.727-1.294-15.523-0.014-23.289c0.185-1.124,0.329-2.254,0.479-3.297c-23.241-13.203-23.772-37.441-13.322-52
			c11.208-15.617,36.586-21.013,55.417-2.788c16.38-10.85,34.251-18.458,53.376-23.452c18.928-4.944,38.102-7.437,58.404-7.884
			c0.94-1.953,2.311-4.137,3.088-6.516c6.81-20.847,13.511-41.729,20.257-62.596c0.151-0.466,0.463-0.88,0.932-1.745
			c7.949,1.745,16.011,3.513,24.07,5.287c0.324,0.072,0.637,0.199,0.954,0.298c8.991,2.799,17.413,3.361,26.604-1.094
			c8.765-4.248,18.855-4.152,28.189-0.38c4.172,1.687,7.834,4.638,11.752,7.03c7.643-22.002,15.414-44.454,23.279-66.873
			c0.656-1.874,1.957-3.522,2.959-5.274C317.627,1,317.961,1,318.293,1z"/>
	</g>
</g>
</svg>
